G04 IPQ-2026 carrier board*
%FSLAX35Y35*%
%MOMM*%
%TF.FileFunction,Copper,L2,Bot*%
G36*
X0.5Y0.5D02*
X94.5Y0.5D01*
X94.5Y79.5D01*
X0.5Y79.5D01*
D01*
G37*
%LPC*%
%ADDC2.6C,2.6000*%
DC2.6*
X15Y16D03*
X15Y18.54D03*
X15Y21.08D03*
X15Y23.62D03*
X15Y26.16D03*
X15Y28.7D03*
X15Y31.24D03*
X15Y33.78D03*
X15Y36.32D03*
X15Y38.86D03*
X15Y41.4D03*
X15Y43.94D03*
X15Y46.48D03*
X15Y51.56D03*
X37.86Y16D03*
X37.86Y18.54D03*
X37.86Y21.08D03*
X37.86Y23.62D03*
X37.86Y26.16D03*
X37.86Y28.7D03*
X37.86Y31.24D03*
X37.86Y33.78D03*
X37.86Y36.32D03*
X37.86Y38.86D03*
X37.86Y41.4D03*
X37.86Y43.94D03*
X37.86Y46.48D03*
X37.86Y51.56D03*
%ADDC2.7C,2.7000*%
DC2.7*
X52Y12D03*
X52Y14.54D03*
X52Y17.08D03*
X52Y19.62D03*
X52Y22.16D03*
X52Y24.7D03*
X52Y27.24D03*
X62.16Y12D03*
X62.16Y14.54D03*
X62.16Y19.62D03*
X62.16Y22.16D03*
X62.16Y24.7D03*
X62.16Y27.24D03*
DC2.6*
X46Y40D03*
X51.08Y40D03*
X53.62Y40D03*
X56.16Y40D03*
X58.7Y40D03*
X63.78Y40D03*
X34Y66D03*
X39.08Y66D03*
X41.62Y66D03*
X44.16Y66D03*
X46.7Y66D03*
DC2.7*
X34Y72.5D03*
X36.54Y72.5D03*
X39.08Y72.5D03*
DC2.6*
X51.08Y66D03*
X53.62Y66D03*
X58.7Y66D03*
X14Y66D03*
X19.08Y66D03*
%ADDC3.8C,3.8000*%
DC3.8*
X77Y9D03*
X82.08Y9D03*
X77Y16D03*
X82.08Y16D03*
X77Y26D03*
X82.08Y26D03*
%ADDC3.5C,3.5000*%
DC3.5*
X10Y30D03*
X10Y33.5D03*
X10Y40.5D03*
X10Y46D03*
X10Y49.5D03*
X10Y56.5D03*
DC3.8*
X77Y70D03*
DC2.7*
X70.54Y73.5D03*
X68Y73.5D03*
%ADDC2.8C,2.8000*%
DC2.8*
X73.5Y6D03*
X70Y6D03*
%ADDC1.9C,1.9000*%
DC1.9*
X40.2Y18.54D03*
X42.3Y26.16D03*
X39.2Y28.7D03*
X44.16Y46.48D03*
X46.7Y43.94D03*
X49Y51.56D03*
X41.3Y51.56D03*
X12Y46D03*
X13.4Y49.5D03*
X77Y74.2D03*
X85Y74.2D03*
X85Y12D03*
%ADDC1.3C,1.3000*%
DC1.3*
X39.2Y28.7D02*
X39.2Y14.54D01*
X52Y14.54D01*
X40.2Y18.54D02*
X40.2Y33.5D01*
X51.08Y33.5D01*
X51.08Y66D01*
X42.3Y26.16D02*
X42.3Y24D01*
X50.4Y24D01*
X50.4Y9.5D01*
X53.62Y9.5D01*
X53.62Y66D01*
X44.16Y46.48D02*
X44.16Y66D01*
X46.7Y43.94D02*
X46.7Y66D01*
%ADDC1.7C,1.7000*%
DC1.7*
X49Y51.56D02*
X49Y68.5D01*
DC1.3*
X49Y68.5D02*
X58.7Y68.5D01*
X58.7Y66D01*
X49Y68.5D02*
X49Y70.8D01*
X36.54Y70.8D01*
X36.54Y72.5D01*
X49Y70.8D02*
X6.2Y70.8D01*
X6.2Y40.5D01*
X10Y40.5D01*
X6.2Y56.5D02*
X10Y56.5D01*
X41.3Y51.56D02*
X41.3Y34.5D01*
X49.3Y34.5D01*
X49.3Y19.62D01*
X52Y19.62D01*
X41.3Y41.5D02*
X46Y41.5D01*
X46Y40D01*
DC1.7*
X77Y74.2D02*
X85Y74.2D01*
DC2.7*
X85Y74.2D02*
X85Y12D01*
DC1.3*
X12Y46D02*
X12Y28.7D01*
X15Y28.7D01*
X13.4Y49.5D02*
X13.4Y31.24D01*
X15Y31.24D01*
%ADDC4.4C,4.4000*%
DC4.4*
X5Y5D03*
X90Y5D03*
X5Y75D03*
X90Y75D03*
%ADDC0.8C,0.8000*%
DC0.8*
X0.3Y0.3D02*
X94.7Y0.3D01*
X94.7Y79.7D01*
X0.3Y79.7D01*
X0.3Y0.3D01*
%LPD*%
%LPC*%
DC2.8*
X15Y49.02D03*
%LPD*%
%ADDC0.5C,0.5000*%
DC0.5*
X15.60104Y49.62104D02*
X16.30815Y50.32815D01*
X14.39896Y49.62104D02*
X13.69185Y50.32815D01*
X14.39896Y48.41896D02*
X13.69185Y47.71185D01*
X15.60104Y48.41896D02*
X16.30815Y47.71185D01*
%LPC*%
DC2.8*
X37.86Y49.02D03*
%LPD*%
DC0.5*
X38.46104Y49.62104D02*
X39.16815Y50.32815D01*
X37.25896Y49.62104D02*
X36.55185Y50.32815D01*
X37.25896Y48.41896D02*
X36.55185Y47.71185D01*
X38.46104Y48.41896D02*
X39.16815Y47.71185D01*
%LPC*%
%ADDC2.9C,2.9000*%
DC2.9*
X52Y29.78D03*
%LPD*%
DC0.5*
X52.6364Y30.4164D02*
X53.3435Y31.1235D01*
X51.3636Y30.4164D02*
X50.6565Y31.1235D01*
X51.3636Y29.1436D02*
X50.6565Y28.4365D01*
X52.6364Y29.1436D02*
X53.3435Y28.4365D01*
%LPC*%
DC2.9*
X62.16Y17.08D03*
%LPD*%
DC0.5*
X62.7964Y17.7164D02*
X63.5035Y18.4235D01*
X61.5236Y17.7164D02*
X60.8165Y18.4235D01*
X61.5236Y16.4436D02*
X60.8165Y15.7365D01*
X62.7964Y16.4436D02*
X63.5035Y15.7365D01*
%LPC*%
DC2.9*
X62.16Y29.78D03*
%LPD*%
DC0.5*
X62.7964Y30.4164D02*
X63.5035Y31.1235D01*
X61.5236Y30.4164D02*
X60.8165Y31.1235D01*
X61.5236Y29.1436D02*
X60.8165Y28.4365D01*
X62.7964Y29.1436D02*
X63.5035Y28.4365D01*
%LPC*%
DC2.8*
X48.54Y40D03*
%LPD*%
DC0.5*
X49.14104Y40.60104D02*
X49.84815Y41.30815D01*
X47.93896Y40.60104D02*
X47.23185Y41.30815D01*
X47.93896Y39.39896D02*
X47.23185Y38.69185D01*
X49.14104Y39.39896D02*
X49.84815Y38.69185D01*
%LPC*%
DC2.8*
X61.24Y40D03*
%LPD*%
DC0.5*
X61.84104Y40.60104D02*
X62.54815Y41.30815D01*
X60.63896Y40.60104D02*
X59.93185Y41.30815D01*
X60.63896Y39.39896D02*
X59.93185Y38.69185D01*
X61.84104Y39.39896D02*
X62.54815Y38.69185D01*
%LPC*%
DC2.8*
X36.54Y66D03*
%LPD*%
DC0.5*
X37.14104Y66.60104D02*
X37.84815Y67.30815D01*
X35.93896Y66.60104D02*
X35.23185Y67.30815D01*
X35.93896Y65.39896D02*
X35.23185Y64.69185D01*
X37.14104Y65.39896D02*
X37.84815Y64.69185D01*
%LPC*%
DC2.8*
X56.16Y66D03*
%LPD*%
DC0.5*
X56.76104Y66.60104D02*
X57.46815Y67.30815D01*
X55.55896Y66.60104D02*
X54.85185Y67.30815D01*
X55.55896Y65.39896D02*
X54.85185Y64.69185D01*
X56.76104Y65.39896D02*
X57.46815Y64.69185D01*
%LPC*%
DC2.8*
X16.54Y66D03*
%LPD*%
DC0.5*
X17.14104Y66.60104D02*
X17.84815Y67.30815D01*
X15.93896Y66.60104D02*
X15.23185Y67.30815D01*
X15.93896Y65.39896D02*
X15.23185Y64.69185D01*
X17.14104Y65.39896D02*
X17.84815Y64.69185D01*
%LPC*%
DC2.8*
X21.62Y66D03*
%LPD*%
DC0.5*
X22.22104Y66.60104D02*
X22.92815Y67.30815D01*
X21.01896Y66.60104D02*
X20.31185Y67.30815D01*
X21.01896Y65.39896D02*
X20.31185Y64.69185D01*
X22.22104Y65.39896D02*
X22.92815Y64.69185D01*
%LPC*%
%ADDC3.7C,3.7000*%
DC3.7*
X10Y37D03*
%LPD*%
DC0.5*
X10.91924Y37.91924D02*
X11.62635Y38.62635D01*
X9.08076Y37.91924D02*
X8.37365Y38.62635D01*
X9.08076Y36.08076D02*
X8.37365Y35.37365D01*
X10.91924Y36.08076D02*
X11.62635Y35.37365D01*
%LPC*%
DC3.7*
X10Y53D03*
%LPD*%
DC0.5*
X10.91924Y53.91924D02*
X11.62635Y54.62635D01*
X9.08076Y53.91924D02*
X8.37365Y54.62635D01*
X9.08076Y52.08076D02*
X8.37365Y51.37365D01*
X10.91924Y52.08076D02*
X11.62635Y51.37365D01*
%LPC*%
%ADDC4C,4.0000*%
DC4*
X82.08Y70D03*
%LPD*%
DC0.5*
X83.1053Y71.0253D02*
X83.81241Y71.73241D01*
X81.0547Y71.0253D02*
X80.34759Y71.73241D01*
X81.0547Y68.9747D02*
X80.34759Y68.26759D01*
X83.1053Y68.9747D02*
X83.81241Y68.26759D01*
%LPC*%
%ADDC3C,3.0000*%
DC3*
X73.5Y11D03*
%LPD*%
DC0.5*
X74.17175Y11.67175D02*
X74.87886Y12.37886D01*
X72.82825Y11.67175D02*
X72.12114Y12.37886D01*
X72.82825Y10.32825D02*
X72.12114Y9.62114D01*
X74.17175Y10.32825D02*
X74.87886Y9.62114D01*
%LPC*%
DC3*
X70Y8.54D03*
%LPD*%
DC0.5*
X70.67175Y9.21175D02*
X71.37886Y9.91886D01*
X69.32825Y9.21175D02*
X68.62114Y9.91886D01*
X69.32825Y7.86825D02*
X68.62114Y7.16114D01*
X70.67175Y7.86825D02*
X71.37886Y7.16114D01*
%ADDC0.4C,0.4000*%
DC0.4*
X39.2Y28.7D02*
X39.2Y14.54D01*
X52Y14.54D01*
X40.2Y18.54D02*
X40.2Y33.5D01*
X51.08Y33.5D01*
X51.08Y66D01*
X42.3Y26.16D02*
X42.3Y24D01*
X50.4Y24D01*
X50.4Y9.5D01*
X53.62Y9.5D01*
X53.62Y66D01*
X44.16Y46.48D02*
X44.16Y66D01*
X46.7Y43.94D02*
X46.7Y66D01*
DC0.8*
X49Y51.56D02*
X49Y68.5D01*
DC0.4*
X49Y68.5D02*
X58.7Y68.5D01*
X58.7Y66D01*
X49Y68.5D02*
X49Y70.8D01*
X36.54Y70.8D01*
X36.54Y72.5D01*
X49Y70.8D02*
X6.2Y70.8D01*
X6.2Y40.5D01*
X10Y40.5D01*
X6.2Y56.5D02*
X10Y56.5D01*
X41.3Y51.56D02*
X41.3Y34.5D01*
X49.3Y34.5D01*
X49.3Y19.62D01*
X52Y19.62D01*
X41.3Y41.5D02*
X46Y41.5D01*
X46Y40D01*
DC0.8*
X77Y74.2D02*
X85Y74.2D01*
%ADDC1.8C,1.8000*%
DC1.8*
X85Y74.2D02*
X85Y12D01*
DC0.4*
X12Y46D02*
X12Y28.7D01*
X15Y28.7D01*
X13.4Y49.5D02*
X13.4Y31.24D01*
X15Y31.24D01*
%ADDC1C,1.0000*%
DC1*
X17.5Y49.02D03*
X35.5Y49.02D03*
X52Y31.5D03*
X62.16Y31.5D03*
X48.54Y42D03*
X61.24Y42D03*
X36.54Y68.6D03*
X16.54Y68.8D03*
X23.5Y67D03*
X56.16Y67.2D03*
X70Y9.9D03*
X73.5Y12.35D03*
X82.08Y72.5D03*
X8.6Y37D03*
X8.6Y53D03*
X40.2Y18.54D03*
X42.3Y26.16D03*
X39.2Y28.7D03*
X44.16Y46.48D03*
X46.7Y43.94D03*
X49Y51.56D03*
X41.3Y51.56D03*
X12Y46D03*
X13.4Y49.5D03*
X77Y74.2D03*
X85Y74.2D03*
X85Y12D03*
%LPC*%
%ADDC2.1C,2.1000*%
DC2.1*
X17.5Y49.02D03*
%LPD*%
DC0.4*
X17.85355Y49.37355D02*
X18.41924Y49.93924D01*
X17.14645Y49.37355D02*
X16.58076Y49.93924D01*
X17.14645Y48.66645D02*
X16.58076Y48.10076D01*
X17.85355Y48.66645D02*
X18.41924Y48.10076D01*
%LPC*%
DC2.1*
X35.5Y49.02D03*
%LPD*%
DC0.4*
X35.85355Y49.37355D02*
X36.41924Y49.93924D01*
X35.14645Y49.37355D02*
X34.58076Y49.93924D01*
X35.14645Y48.66645D02*
X34.58076Y48.10076D01*
X35.85355Y48.66645D02*
X36.41924Y48.10076D01*
%LPC*%
DC2.1*
X52Y31.5D03*
%LPD*%
DC0.4*
X52.35355Y31.85355D02*
X52.91924Y32.41924D01*
X51.64645Y31.85355D02*
X51.08076Y32.41924D01*
X51.64645Y31.14645D02*
X51.08076Y30.58076D01*
X52.35355Y31.14645D02*
X52.91924Y30.58076D01*
%LPC*%
DC2.1*
X62.16Y31.5D03*
%LPD*%
DC0.4*
X62.51355Y31.85355D02*
X63.07924Y32.41924D01*
X61.80645Y31.85355D02*
X61.24076Y32.41924D01*
X61.80645Y31.14645D02*
X61.24076Y30.58076D01*
X62.51355Y31.14645D02*
X63.07924Y30.58076D01*
%LPC*%
DC2.1*
X48.54Y42D03*
%LPD*%
DC0.4*
X48.89355Y42.35355D02*
X49.45924Y42.91924D01*
X48.18645Y42.35355D02*
X47.62076Y42.91924D01*
X48.18645Y41.64645D02*
X47.62076Y41.08076D01*
X48.89355Y41.64645D02*
X49.45924Y41.08076D01*
%LPC*%
DC2.1*
X61.24Y42D03*
%LPD*%
DC0.4*
X61.59355Y42.35355D02*
X62.15924Y42.91924D01*
X60.88645Y42.35355D02*
X60.32076Y42.91924D01*
X60.88645Y41.64645D02*
X60.32076Y41.08076D01*
X61.59355Y41.64645D02*
X62.15924Y41.08076D01*
%LPC*%
DC2.1*
X36.54Y68.6D03*
%LPD*%
DC0.4*
X36.89355Y68.95355D02*
X37.45924Y69.51924D01*
X36.18645Y68.95355D02*
X35.62076Y69.51924D01*
X36.18645Y68.24645D02*
X35.62076Y67.68076D01*
X36.89355Y68.24645D02*
X37.45924Y67.68076D01*
%LPC*%
DC2.1*
X16.54Y68.8D03*
%LPD*%
DC0.4*
X16.89355Y69.15355D02*
X17.45924Y69.71924D01*
X16.18645Y69.15355D02*
X15.62076Y69.71924D01*
X16.18645Y68.44645D02*
X15.62076Y67.88076D01*
X16.89355Y68.44645D02*
X17.45924Y67.88076D01*
%LPC*%
DC2.1*
X23.5Y67D03*
%LPD*%
DC0.4*
X23.85355Y67.35355D02*
X24.41924Y67.91924D01*
X23.14645Y67.35355D02*
X22.58076Y67.91924D01*
X23.14645Y66.64645D02*
X22.58076Y66.08076D01*
X23.85355Y66.64645D02*
X24.41924Y66.08076D01*
%LPC*%
DC2.1*
X56.16Y67.2D03*
%LPD*%
DC0.4*
X56.51355Y67.55355D02*
X57.07924Y68.11924D01*
X55.80645Y67.55355D02*
X55.24076Y68.11924D01*
X55.80645Y66.84645D02*
X55.24076Y66.28076D01*
X56.51355Y66.84645D02*
X57.07924Y66.28076D01*
%LPC*%
DC2.1*
X70Y9.9D03*
%LPD*%
DC0.4*
X70.35355Y10.25355D02*
X70.91924Y10.81924D01*
X69.64645Y10.25355D02*
X69.08076Y10.81924D01*
X69.64645Y9.54645D02*
X69.08076Y8.98076D01*
X70.35355Y9.54645D02*
X70.91924Y8.98076D01*
%LPC*%
DC2.1*
X73.5Y12.35D03*
%LPD*%
DC0.4*
X73.85355Y12.70355D02*
X74.41924Y13.26924D01*
X73.14645Y12.70355D02*
X72.58076Y13.26924D01*
X73.14645Y11.99645D02*
X72.58076Y11.43076D01*
X73.85355Y11.99645D02*
X74.41924Y11.43076D01*
%LPC*%
DC2.1*
X82.08Y72.5D03*
%LPD*%
DC0.4*
X82.43355Y72.85355D02*
X82.99924Y73.41924D01*
X81.72645Y72.85355D02*
X81.16076Y73.41924D01*
X81.72645Y72.14645D02*
X81.16076Y71.58076D01*
X82.43355Y72.14645D02*
X82.99924Y71.58076D01*
%LPC*%
DC2.1*
X8.6Y37D03*
%LPD*%
DC0.4*
X8.95355Y37.35355D02*
X9.51924Y37.91924D01*
X8.24645Y37.35355D02*
X7.68076Y37.91924D01*
X8.24645Y36.64645D02*
X7.68076Y36.08076D01*
X8.95355Y36.64645D02*
X9.51924Y36.08076D01*
%LPC*%
DC2.1*
X8.6Y53D03*
%LPD*%
DC0.4*
X8.95355Y53.35355D02*
X9.51924Y53.91924D01*
X8.24645Y53.35355D02*
X7.68076Y53.91924D01*
X8.24645Y52.64645D02*
X7.68076Y52.08076D01*
X8.95355Y52.64645D02*
X9.51924Y52.08076D01*
DC1.7*
X15Y16D03*
X15Y18.54D03*
X15Y21.08D03*
X15Y23.62D03*
X15Y26.16D03*
X15Y28.7D03*
X15Y31.24D03*
X15Y33.78D03*
X15Y36.32D03*
X15Y38.86D03*
X15Y41.4D03*
X15Y43.94D03*
X15Y46.48D03*
X15Y51.56D03*
X37.86Y16D03*
X37.86Y18.54D03*
X37.86Y21.08D03*
X37.86Y23.62D03*
X37.86Y26.16D03*
X37.86Y28.7D03*
X37.86Y31.24D03*
X37.86Y33.78D03*
X37.86Y36.32D03*
X37.86Y38.86D03*
X37.86Y41.4D03*
X37.86Y43.94D03*
X37.86Y46.48D03*
X37.86Y51.56D03*
DC1.8*
X52Y12D03*
X52Y14.54D03*
X52Y17.08D03*
X52Y19.62D03*
X52Y22.16D03*
X52Y24.7D03*
X52Y27.24D03*
X62.16Y12D03*
X62.16Y14.54D03*
X62.16Y19.62D03*
X62.16Y22.16D03*
X62.16Y24.7D03*
X62.16Y27.24D03*
DC1.7*
X46Y40D03*
X51.08Y40D03*
X53.62Y40D03*
X56.16Y40D03*
X58.7Y40D03*
X63.78Y40D03*
X34Y66D03*
X39.08Y66D03*
X41.62Y66D03*
X44.16Y66D03*
X46.7Y66D03*
DC1.8*
X34Y72.5D03*
X36.54Y72.5D03*
X39.08Y72.5D03*
DC1.7*
X51.08Y66D03*
X53.62Y66D03*
X58.7Y66D03*
X14Y66D03*
X19.08Y66D03*
DC2.9*
X77Y9D03*
X82.08Y9D03*
X77Y16D03*
X82.08Y16D03*
X77Y26D03*
X82.08Y26D03*
DC2.6*
X10Y30D03*
X10Y33.5D03*
X10Y40.5D03*
X10Y46D03*
X10Y49.5D03*
X10Y56.5D03*
DC2.9*
X77Y70D03*
DC1.8*
X70.54Y73.5D03*
X68Y73.5D03*
DC1.9*
X73.5Y6D03*
X70Y6D03*
M02*
