G04 IPQ-2026 carrier board*
%FSLAX35Y35*%
%MOMM*%
%TF.FileFunction,Legend,Bot*%
%ADDC0.18C,0.1800*%
DC0.18*
X80.54Y40D02*
X80.54Y41.6D01*
X80.86Y40D02*
X80.22Y40D01*
X80.86Y41.6D02*
X80.22Y41.6D01*
X79.82Y41.6D02*
X79.82Y40D01*
X79.82Y40D02*
X79.1Y40D01*
X79.1Y40D02*
X78.828Y40.288D01*
X78.828Y40.288D02*
X79.1Y40.8D01*
X79.1Y40.8D02*
X79.82Y40.8D01*
X78.38Y40D02*
X77.9Y40D01*
X77.9Y40D02*
X77.628Y40.32D01*
X77.628Y40.32D02*
X77.628Y41.2D01*
X77.628Y41.2D02*
X77.9Y41.6D01*
X77.9Y41.6D02*
X78.38Y41.6D01*
X78.38Y41.6D02*
X78.62Y41.28D01*
X78.62Y41.28D02*
X78.62Y40.32D01*
X78.62Y40.32D02*
X78.38Y40D01*
X78.012Y41.088D02*
X77.58Y41.632D01*
X77.26Y40.8D02*
X76.62Y40.8D01*
X76.22Y40.32D02*
X75.98Y40D01*
X75.98Y40D02*
X75.5Y40D01*
X75.5Y40D02*
X75.26Y40.288D01*
X75.26Y40.288D02*
X75.26Y40.56D01*
X75.26Y40.56D02*
X76.22Y41.6D01*
X76.22Y41.6D02*
X75.26Y41.6D01*
X74.828Y40.24D02*
X75.02Y40.512D01*
X75.02Y40.512D02*
X75.02Y41.088D01*
X75.02Y41.088D02*
X74.828Y41.36D01*
X74.828Y41.36D02*
X74.252Y41.36D01*
X74.252Y41.36D02*
X74.06Y41.088D01*
X74.06Y41.088D02*
X74.06Y40.512D01*
X74.06Y40.512D02*
X74.252Y40.24D01*
X74.252Y40.24D02*
X74.828Y40.24D01*
X74.828Y40.24D02*
X74.252Y41.36D01*
X74.252Y41.36D02*
X74.828Y40.24D01*
X73.82Y40.32D02*
X73.58Y40D01*
X73.58Y40D02*
X73.1Y40D01*
X73.1Y40D02*
X72.86Y40.288D01*
X72.86Y40.288D02*
X72.86Y40.56D01*
X72.86Y40.56D02*
X73.82Y41.6D01*
X73.82Y41.6D02*
X72.86Y41.6D01*
X71.74Y40.08D02*
X72.3Y40D01*
X72.3Y40D02*
X72.62Y40.56D01*
X72.62Y40.56D02*
X72.62Y41.28D01*
X72.62Y41.28D02*
X72.332Y41.6D01*
X72.332Y41.6D02*
X71.948Y41.6D01*
X71.948Y41.6D02*
X71.692Y41.28D01*
X71.692Y41.28D02*
X71.948Y40.96D01*
X71.948Y40.96D02*
X72.332Y40.96D01*
X72.332Y40.96D02*
X72.62Y41.28D01*
X69.26Y40.24D02*
X69.5Y40D01*
X69.5Y40D02*
X69.98Y40D01*
X69.98Y40D02*
X70.22Y40.32D01*
X70.22Y40.32D02*
X70.22Y41.28D01*
X70.22Y41.28D02*
X69.98Y41.6D01*
X69.98Y41.6D02*
X69.5Y41.6D01*
X69.5Y41.6D02*
X69.26Y41.36D01*
X69.02Y41.6D02*
X68.54Y40D01*
X68.54Y40D02*
X68.06Y41.6D01*
X68.828Y40.992D02*
X68.252Y40.992D01*
X67.82Y41.6D02*
X67.82Y40D01*
X67.82Y40D02*
X67.1Y40D01*
X67.1Y40D02*
X66.828Y40.288D01*
X66.828Y40.288D02*
X67.1Y40.8D01*
X67.1Y40.8D02*
X67.82Y40.8D01*
X67.26Y40.8D02*
X66.828Y41.6D01*
X66.62Y41.6D02*
X66.62Y40D01*
X66.62Y40D02*
X65.9Y40D01*
X65.9Y40D02*
X65.628Y40.288D01*
X65.628Y40.288D02*
X65.9Y40.8D01*
X65.9Y40.8D02*
X66.62Y40.8D01*
X66.06Y40.8D02*
X65.628Y41.6D01*
X64.94Y40D02*
X64.94Y41.6D01*
X65.26Y40D02*
X64.62Y40D01*
X65.26Y41.6D02*
X64.62Y41.6D01*
X63.228Y40D02*
X64.22Y40D01*
X64.22Y40D02*
X64.22Y41.6D01*
X64.22Y41.6D02*
X63.228Y41.6D01*
X64.22Y40.8D02*
X63.452Y40.8D01*
X63.02Y41.6D02*
X63.02Y40D01*
X63.02Y40D02*
X62.3Y40D01*
X62.3Y40D02*
X62.028Y40.288D01*
X62.028Y40.288D02*
X62.3Y40.8D01*
X62.3Y40.8D02*
X63.02Y40.8D01*
X62.46Y40.8D02*
X62.028Y41.6D01*
X60.62Y40D02*
X60.14Y41.6D01*
X60.14Y41.6D02*
X59.66Y40D01*
X59.18Y40.32D02*
X58.94Y40D01*
X58.94Y40D02*
X58.94Y41.6D01*
X59.292Y41.6D02*
X58.588Y41.6D01*
X57.772Y41.36D02*
X57.708Y41.36D01*
X57.772Y41.36D02*
X57.772Y41.44D01*
X57.772Y41.44D02*
X57.708Y41.44D01*
X57.708Y41.44D02*
X57.708Y41.36D01*
X56.828Y40.24D02*
X57.02Y40.512D01*
X57.02Y40.512D02*
X57.02Y41.088D01*
X57.02Y41.088D02*
X56.828Y41.36D01*
X56.828Y41.36D02*
X56.252Y41.36D01*
X56.252Y41.36D02*
X56.06Y41.088D01*
X56.06Y41.088D02*
X56.06Y40.512D01*
X56.06Y40.512D02*
X56.252Y40.24D01*
X56.252Y40.24D02*
X56.828Y40.24D01*
X56.828Y40.24D02*
X56.252Y41.36D01*
X56.252Y41.36D02*
X56.828Y40.24D01*
X54.62Y40D02*
X54.62Y41.6D01*
X54.62Y40D02*
X53.9Y40D01*
X53.9Y40D02*
X53.66Y40.24D01*
X53.66Y40.24D02*
X53.9Y40.672D01*
X53.9Y40.672D02*
X54.62Y40.8D01*
X53.9Y40.8D02*
X53.628Y41.088D01*
X53.628Y41.088D02*
X53.9Y41.6D01*
X53.9Y41.6D02*
X54.62Y41.6D01*
X53.18Y40D02*
X52.7Y40D01*
X52.7Y40D02*
X52.428Y40.32D01*
X52.428Y40.32D02*
X52.428Y41.28D01*
X52.428Y41.28D02*
X52.7Y41.6D01*
X52.7Y41.6D02*
X53.18Y41.6D01*
X53.18Y41.6D02*
X53.42Y41.28D01*
X53.42Y41.28D02*
X53.42Y40.32D01*
X53.42Y40.32D02*
X53.18Y40D01*
X52.22Y40D02*
X51.26Y40D01*
X51.74Y40D02*
X51.74Y41.6D01*
X51.02Y40D02*
X50.06Y40D01*
X50.54Y40D02*
X50.54Y41.6D01*
X49.58Y40D02*
X49.1Y40D01*
X49.1Y40D02*
X48.828Y40.32D01*
X48.828Y40.32D02*
X48.828Y41.28D01*
X48.828Y41.28D02*
X49.1Y41.6D01*
X49.1Y41.6D02*
X49.58Y41.6D01*
X49.58Y41.6D02*
X49.82Y41.28D01*
X49.82Y41.28D02*
X49.82Y40.32D01*
X49.82Y40.32D02*
X49.58Y40D01*
X48.62Y41.6D02*
X48.62Y40D01*
X48.62Y40D02*
X48.14Y40.64D01*
X48.14Y40.64D02*
X47.66Y40D01*
X47.66Y40D02*
X47.66Y41.6D01*
M02*
