G04 IPQ-2026 carrier board*
%FSLAX35Y35*%
%MOMM*%
%TF.FileFunction,Copper,L1,Top*%
%ADDC0.4C,0.4000*%
DC0.4*
X37.86Y16D02*
X52Y16D01*
X52Y17.08D01*
X37.86Y31.24D02*
X43.5Y31.24D01*
X43.5Y22.16D01*
X52Y22.16D01*
X37.86Y38.86D02*
X45.3Y38.86D01*
X45.3Y24.7D01*
X52Y24.7D01*
X37.86Y18.54D02*
X40.2Y18.54D01*
X37.86Y26.16D02*
X42.3Y26.16D01*
X15Y38.86D02*
X20Y38.86D01*
X20Y63.5D01*
X39.08Y63.5D01*
X39.08Y66D01*
X15Y41.4D02*
X22.5Y41.4D01*
X22.5Y62D01*
X41.62Y62D01*
X41.62Y66D01*
X37.86Y46.48D02*
X44.16Y46.48D01*
X37.86Y43.94D02*
X46.7Y43.94D01*
%ADDC0.8C,0.8000*%
DC0.8*
X37.86Y51.56D02*
X50.3Y51.56D01*
X19.08Y66D02*
X19.08Y64.3D01*
X12.4Y64.3D01*
X12.4Y51.56D01*
X15Y51.56D01*
DC0.4*
X19.08Y66D02*
X19.08Y68.3D01*
X26.5Y68.3D01*
X26.5Y75.6D01*
X40.7Y75.6D01*
X40.7Y72.5D01*
X39.08Y72.5D01*
%ADDC0.5C,0.5000*%
DC0.5*
X68Y73.5D02*
X68Y77.1D01*
X12Y77.1D01*
X12Y66D01*
X14Y66D01*
X77Y70D02*
X71.8Y70D01*
X71.8Y73.5D01*
X70.54Y73.5D01*
DC0.8*
X77Y70D02*
X77Y74.2D01*
X85Y12D02*
X77Y12D01*
X77Y9D01*
%ADDC1.8C,1.8000*%
DC1.8*
X82.08Y9D02*
X82.08Y6D01*
X64.5Y6D01*
X64.5Y12D01*
X62.16Y12D01*
X62.16Y19.62D02*
X72.5Y19.62D01*
X72.5Y16D01*
X77Y16D01*
X62.16Y22.16D02*
X67Y22.16D01*
X67Y23.3D01*
X87Y23.3D01*
X87Y16D01*
X82.08Y16D01*
X62.16Y24.7D02*
X64.3Y24.7D01*
X64.3Y31.5D01*
X88.5Y31.5D01*
X88.5Y26D01*
X82.08Y26D01*
X62.16Y27.24D02*
X70Y27.24D01*
X70Y26D01*
X77Y26D01*
DC0.4*
X10Y30D02*
X12Y30D01*
X12Y23.62D01*
X15Y23.62D01*
X10Y33.5D02*
X13.4Y33.5D01*
X13.4Y26.16D01*
X15Y26.16D01*
X10Y46D02*
X12Y46D01*
X10Y49.5D02*
X13.4Y49.5D01*
X15Y49.02D02*
X17.5Y49.02D01*
X37.86Y49.02D02*
X35.5Y49.02D01*
X52Y29.78D02*
X52Y31.5D01*
X62.16Y29.78D02*
X62.16Y31.5D01*
X48.54Y40D02*
X48.54Y42D01*
X61.24Y40D02*
X61.24Y42D01*
X36.54Y66D02*
X36.54Y68.6D01*
X16.54Y66D02*
X16.54Y68.8D01*
X21.62Y66D02*
X23.5Y67D01*
X56.16Y66D02*
X56.16Y67.2D01*
X70Y8.54D02*
X70Y9.9D01*
X73.5Y11D02*
X73.5Y12.35D01*
X82.08Y70D02*
X82.08Y72.5D01*
X10Y37D02*
X8.6Y37D01*
X10Y53D02*
X8.6Y53D01*
DC0.5*
X34Y66D02*
X34Y72.5D01*
%ADDC1.7C,1.7000*%
DC1.7*
X15Y16D03*
X15Y18.54D03*
X15Y21.08D03*
X15Y23.62D03*
X15Y26.16D03*
X15Y28.7D03*
X15Y31.24D03*
X15Y33.78D03*
X15Y36.32D03*
X15Y38.86D03*
X15Y41.4D03*
X15Y43.94D03*
X15Y46.48D03*
X15Y49.02D03*
X15Y51.56D03*
X37.86Y16D03*
X37.86Y18.54D03*
X37.86Y21.08D03*
X37.86Y23.62D03*
X37.86Y26.16D03*
X37.86Y28.7D03*
X37.86Y31.24D03*
X37.86Y33.78D03*
X37.86Y36.32D03*
X37.86Y38.86D03*
X37.86Y41.4D03*
X37.86Y43.94D03*
X37.86Y46.48D03*
X37.86Y49.02D03*
X37.86Y51.56D03*
DC1.8*
X52Y12D03*
X52Y14.54D03*
X52Y17.08D03*
X52Y19.62D03*
X52Y22.16D03*
X52Y24.7D03*
X52Y27.24D03*
X52Y29.78D03*
X62.16Y12D03*
X62.16Y14.54D03*
X62.16Y17.08D03*
X62.16Y19.62D03*
X62.16Y22.16D03*
X62.16Y24.7D03*
X62.16Y27.24D03*
X62.16Y29.78D03*
DC1.7*
X46Y40D03*
X48.54Y40D03*
X51.08Y40D03*
X53.62Y40D03*
X56.16Y40D03*
X58.7Y40D03*
X61.24Y40D03*
X63.78Y40D03*
X34Y66D03*
X36.54Y66D03*
X39.08Y66D03*
X41.62Y66D03*
X44.16Y66D03*
X46.7Y66D03*
DC1.8*
X34Y72.5D03*
X36.54Y72.5D03*
X39.08Y72.5D03*
DC1.7*
X51.08Y66D03*
X53.62Y66D03*
X56.16Y66D03*
X58.7Y66D03*
X14Y66D03*
X16.54Y66D03*
X19.08Y66D03*
X21.62Y66D03*
%ADDC2.9C,2.9000*%
DC2.9*
X77Y9D03*
X82.08Y9D03*
X77Y16D03*
X82.08Y16D03*
X77Y26D03*
X82.08Y26D03*
%ADDC2.6C,2.6000*%
DC2.6*
X10Y30D03*
X10Y33.5D03*
X10Y37D03*
X10Y40.5D03*
X10Y46D03*
X10Y49.5D03*
X10Y53D03*
X10Y56.5D03*
DC2.9*
X77Y70D03*
X82.08Y70D03*
DC1.8*
X70.54Y73.5D03*
X68Y73.5D03*
%ADDC1.9C,1.9000*%
DC1.9*
X73.5Y6D03*
X73.5Y11D03*
X70Y6D03*
X70Y8.54D03*
%ADDC1C,1.0000*%
DC1*
X17.5Y49.02D03*
X35.5Y49.02D03*
X52Y31.5D03*
X62.16Y31.5D03*
X48.54Y42D03*
X61.24Y42D03*
X36.54Y68.6D03*
X16.54Y68.8D03*
X23.5Y67D03*
X56.16Y67.2D03*
X70Y9.9D03*
X73.5Y12.35D03*
X82.08Y72.5D03*
X8.6Y37D03*
X8.6Y53D03*
X40.2Y18.54D03*
X42.3Y26.16D03*
X39.2Y28.7D03*
X44.16Y46.48D03*
X46.7Y43.94D03*
X49Y51.56D03*
X41.3Y51.56D03*
X12Y46D03*
X13.4Y49.5D03*
X77Y74.2D03*
X85Y74.2D03*
X85Y12D03*
M02*
