M48
;TYPE=PLATED
METRIC,TZ
T1C1.000
T2C1.500
T3C1.300
T4C0.900
T5C0.600
%
G90
G05
T1
X15.000Y16.000
X15.000Y18.540
X15.000Y21.080
X15.000Y23.620
X15.000Y26.160
X15.000Y28.700
X15.000Y31.240
X15.000Y33.780
X15.000Y36.320
X15.000Y38.860
X15.000Y41.400
X15.000Y43.940
X15.000Y46.480
X15.000Y49.020
X15.000Y51.560
X37.860Y16.000
X37.860Y18.540
X37.860Y21.080
X37.860Y23.620
X37.860Y26.160
X37.860Y28.700
X37.860Y31.240
X37.860Y33.780
X37.860Y36.320
X37.860Y38.860
X37.860Y41.400
X37.860Y43.940
X37.860Y46.480
X37.860Y49.020
X37.860Y51.560
X52.000Y12.000
X52.000Y14.540
X52.000Y17.080
X52.000Y19.620
X52.000Y22.160
X52.000Y24.700
X52.000Y27.240
X52.000Y29.780
X62.160Y12.000
X62.160Y14.540
X62.160Y17.080
X62.160Y19.620
X62.160Y22.160
X62.160Y24.700
X62.160Y27.240
X62.160Y29.780
X46.000Y40.000
X48.540Y40.000
X51.080Y40.000
X53.620Y40.000
X56.160Y40.000
X58.700Y40.000
X61.240Y40.000
X63.780Y40.000
X34.000Y66.000
X36.540Y66.000
X39.080Y66.000
X41.620Y66.000
X44.160Y66.000
X46.700Y66.000
X34.000Y72.500
X36.540Y72.500
X39.080Y72.500
X51.080Y66.000
X53.620Y66.000
X56.160Y66.000
X58.700Y66.000
X14.000Y66.000
X16.540Y66.000
X19.080Y66.000
X21.620Y66.000
X70.540Y73.500
X68.000Y73.500
T2
X77.000Y9.000
X82.080Y9.000
X77.000Y16.000
X82.080Y16.000
X77.000Y26.000
X82.080Y26.000
X77.000Y70.000
X82.080Y70.000
T3
X10.000Y30.000
X10.000Y33.500
X10.000Y37.000
X10.000Y40.500
X10.000Y46.000
X10.000Y49.500
X10.000Y53.000
X10.000Y56.500
T4
X73.500Y6.000
X73.500Y11.000
X70.000Y6.000
X70.000Y8.540
T5
X17.500Y49.020
X35.500Y49.020
X52.000Y31.500
X62.160Y31.500
X48.540Y42.000
X61.240Y42.000
X36.540Y68.600
X16.540Y68.800
X23.500Y67.000
X56.160Y67.200
X70.000Y9.900
X73.500Y12.350
X82.080Y72.500
X8.600Y37.000
X8.600Y53.000
X40.200Y18.540
X42.300Y26.160
X39.200Y28.700
X44.160Y46.480
X46.700Y43.940
X49.000Y51.560
X41.300Y51.560
X12.000Y46.000
X13.400Y49.500
X77.000Y74.200
X85.000Y74.200
X85.000Y12.000
T0
M30
